<?xml version="1.0" encoding="UTF-8"?>
<svg width="23px" height="24px" viewBox="0 0 23 24" version="1.1" xmlns="http://www.w3.org/2000/svg" xmlns:xlink="http://www.w3.org/1999/xlink">
    <!-- Generator: Sketch 49.2 (51160) - http://www.bohemiancoding.com/sketch -->
    <title>Svgs/audit/grey</title>
    <desc>Created with Sketch.</desc>
    <defs>
        <path d="M18.3057554,9.61151079 L18.3057554,7.1942446 L6.27697842,7.1942446 L6.27697842,9.61151079 L18.3057554,9.61151079 Z M18.3057554,14.3884892 L18.3057554,12.028777 L6.27697842,12.028777 L6.27697842,14.3884892 L18.3057554,14.3884892 Z M14.7086331,19.2230216 L14.7086331,16.8057554 L6.27697842,16.8057554 L6.27697842,19.2230216 L14.7086331,19.2230216 Z M12.2913669,2.41726619 C11.9652262,2.41726619 11.6870515,2.53237295 11.4568345,2.76258993 C11.2266176,2.99280691 11.1115108,3.27098158 11.1115108,3.5971223 C11.1115108,3.92326302 11.2266176,4.21102993 11.4568345,4.46043165 C11.6870515,4.70983338 11.9652262,4.83453237 12.2913669,4.83453237 C12.6175076,4.83453237 12.8956823,4.70983338 13.1258993,4.46043165 C13.3561163,4.21102993 13.471223,3.92326302 13.471223,3.5971223 C13.471223,3.27098158 13.3561163,2.99280691 13.1258993,2.76258993 C12.8956823,2.53237295 12.6175076,2.41726619 12.2913669,2.41726619 Z M20.6654676,2.41726619 C21.3177491,2.41726619 21.8836906,2.65707194 22.3633094,3.13669065 C22.8429281,3.61630935 23.0827338,4.18225094 23.0827338,4.83453237 L23.0827338,21.5827338 C23.0827338,22.2350153 22.8429281,22.8009568 22.3633094,23.2805755 C21.8836906,23.7601942 21.3177491,24 20.6654676,24 L3.91726619,24 C3.26498475,24 2.69904317,23.7601942 2.21942446,23.2805755 C1.73980576,22.8009568 1.5,22.2350153 1.5,21.5827338 L1.5,4.83453237 C1.5,4.18225094 1.73980576,3.61630935 2.21942446,3.13669065 C2.69904317,2.65707194 3.26498475,2.41726619 3.91726619,2.41726619 L8.92446043,2.41726619 C9.17386216,1.7074305 9.6007164,1.12710058 10.205036,0.676258993 C10.8093555,0.22541741 11.5047922,0 12.2913669,0 C13.0779416,0 13.7733783,0.22541741 14.3776978,0.676258993 C14.9820174,1.12710058 15.4088717,1.7074305 15.6582734,2.41726619 L20.6654676,2.41726619 Z" id="path-1"></path>
    </defs>
    <g id="Styleguide" stroke="none" stroke-width="1" fill="none" fill-rule="evenodd">
        <g id="Styleguide---Base" transform="translate(-325.000000, -3881.000000)">
            <g id="BB/Base/Icons/audit/grey" transform="translate(324.000000, 3881.000000)">
                <mask id="mask-2" fill="white">
                    <use xlink:href="#path-1"></use>
                </mask>
                <use id="Mask" fill="#737373" fill-rule="evenodd" xlink:href="#path-1"></use>
            </g>
        </g>
    </g>
</svg>
