<?xml version="1.0" encoding="UTF-8"?>
<svg width="24px" height="24px" viewBox="0 0 24 24" version="1.1" xmlns="http://www.w3.org/2000/svg" xmlns:xlink="http://www.w3.org/1999/xlink">
    <!-- Generator: Sketch 49.2 (51160) - http://www.bohemiancoding.com/sketch -->
    <title>Svgs/Check/Dark</title>
    <desc>Created with Sketch.</desc>
    <defs></defs>
    <g id="Styleguide" stroke="none" stroke-width="1" fill="none" fill-rule="evenodd">
        <g id="Styleguide---Base" transform="translate(-147.000000, -3881.000000)" fill="#302F2B">
            <g id="BB/Base/Icons/Check/Dark" transform="translate(147.000000, 3881.000000)">
                <path d="M12,0 C14.1923187,0 16.2211445,0.548071442 18.0865385,1.64423077 C19.8942398,2.6826975 21.3173025,4.10576019 22.3557692,5.91346154 C23.4519286,7.77885548 24,9.80768135 24,12 C24,14.1923187 23.4519286,16.2211445 22.3557692,18.0865385 C21.3173025,19.8942398 19.8942398,21.3173025 18.0865385,22.3557692 C16.2211445,23.4519286 14.1923187,24 12,24 C9.80768135,24 7.77885548,23.4519286 5.91346154,22.3557692 C4.10576019,21.2980716 2.6826975,19.8653937 1.64423077,18.0576923 C0.548071442,16.1922984 0,14.1730878 0,12 C0,9.82691221 0.548071442,7.80770163 1.64423077,5.94230769 C2.70192837,4.13460635 4.13460635,2.70192837 5.94230769,1.64423077 C7.80770163,0.548071442 9.82691221,0 12,0 Z M9.92248216,17.1320381 L19.1971154,7.85740484 L17.7379064,6.34873117 L9.92248216,14.1888878 L6.26209358,10.5037669 L4.80288462,11.9629758 L9.92248216,17.1320381 Z" id="Combined-Shape"></path>
            </g>
        </g>
    </g>
</svg>
