<?xml version="1.0" encoding="UTF-8"?>
<svg width="21px" height="24px" viewBox="0 0 21 24" version="1.1" xmlns="http://www.w3.org/2000/svg" xmlns:xlink="http://www.w3.org/1999/xlink">
    <!-- Generator: Sketch 49.2 (51160) - http://www.bohemiancoding.com/sketch -->
    <title>Svgs/contacts/grey</title>
    <desc>Created with Sketch.</desc>
    <defs>
        <path d="M17.25,17.016 L17.25,15.504 C17.25,14.9919974 16.9380031,14.5280021 16.314,14.112 C15.8019974,13.7599982 15.1220042,13.480001 14.274,13.272 C13.5379963,13.079999 12.8580031,12.984 12.234,12.984 C11.6099969,12.984 10.9300037,13.079999 10.194,13.272 C9.34599576,13.480001 8.66600256,13.7599982 8.154,14.112 C7.52999688,14.5280021 7.218,14.9919974 7.218,15.504 L7.218,17.016 L17.25,17.016 Z M12.234,6.744 C11.625997,6.744 11.0980022,6.96799776 10.65,7.416 C10.2019978,7.86400224 9.978,8.39199696 9.978,9 C9.978,9.60800304 10.2019978,10.1359978 10.65,10.584 C11.0980022,11.0320022 11.625997,11.256 12.234,11.256 C12.842003,11.256 13.3699978,11.0320022 13.818,10.584 C14.2660022,10.1359978 14.49,9.60800304 14.49,9 C14.49,8.39199696 14.2660022,7.86400224 13.818,7.416 C13.3699978,6.96799776 12.842003,6.744 12.234,6.744 Z M20.25,3.984 C20.7940027,3.984 21.2579981,4.183998 21.642,4.584 C22.0260019,4.984002 22.218,5.45599728 22.218,6 L22.218,18 C22.218,18.5440027 22.0260019,19.015998 21.642,19.416 C21.2579981,19.816002 20.7940027,20.016 20.25,20.016 L4.218,20.016 C3.67399728,20.016 3.21000192,19.816002 2.826,19.416 C2.44199808,19.015998 2.25,18.5440027 2.25,18 L2.25,6 C2.25,5.45599728 2.44199808,4.984002 2.826,4.584 C3.21000192,4.183998 3.67399728,3.984 4.218,3.984 L20.25,3.984 Z M4.218,24 L4.218,21.984 L20.25,21.984 L20.25,24 L4.218,24 Z M20.25,0 L20.25,2.016 L4.218,2.016 L4.218,0 L20.25,0 Z" id="path-1"></path>
    </defs>
    <g id="Styleguide" stroke="none" stroke-width="1" fill="none" fill-rule="evenodd">
        <g id="Styleguide---Base" transform="translate(-371.000000, -3881.000000)">
            <g id="BB/Base/Icons/contacts/grey" transform="translate(369.000000, 3881.000000)">
                <mask id="mask-2" fill="white">
                    <use xlink:href="#path-1"></use>
                </mask>
                <use id="Mask" fill="#737373" fill-rule="evenodd" xlink:href="#path-1"></use>
            </g>
        </g>
    </g>
</svg>
