<?xml version="1.0" encoding="UTF-8"?>
<svg width="24px" height="24px" viewBox="0 0 24 24" version="1.1" xmlns="http://www.w3.org/2000/svg" xmlns:xlink="http://www.w3.org/1999/xlink">
    <!-- Generator: Sketch 49.2 (51160) - http://www.bohemiancoding.com/sketch -->
    <title>Svgs/custom/dark</title>
    <desc>Created with Sketch.</desc>
    <defs></defs>
    <g id="Styleguide" stroke="none" stroke-width="1" fill="none" fill-rule="evenodd">
        <g id="Styleguide---Base" transform="translate(-413.000000, -3881.000000)" fill="#302F2B">
            <g id="BB/Base/Icons/custom/dark" transform="translate(413.000000, 3881.000000)">
                <g id="Group" transform="translate(0.750000, 0.000000)">
                    <path d="M3,24 C2.6688,24 2.4,23.7312 2.4,23.4 L2.4,13.8 C2.4,13.4688 2.6688,13.2 3,13.2 C3.3312,13.2 3.6,13.4688 3.6,13.8 L3.6,23.4 C3.6,23.7312 3.3312,24 3,24" id="Fill-1"></path>
                    <path d="M3,7.2 C2.6688,7.2 2.4,6.9312 2.4,6.6 L2.4,0.6 C2.4,0.2688 2.6688,0 3,0 C3.3312,0 3.6,0.2688 3.6,0.6 L3.6,6.6 C3.6,6.9312 3.3312,7.2 3,7.2" id="Fill-3"></path>
                    <path d="M1.8,9.6 C1.4688,9.6 1.2,9.8688 1.2,10.2 C1.2,10.5312 1.4688,10.8 1.8,10.8 L4.2,10.8 C4.5312,10.8 4.8,10.5312 4.8,10.2 C4.8,9.8688 4.5312,9.6 4.2,9.6 L1.8,9.6 Z M4.2,12 L1.8,12 C0.8076,12 0,11.1924 0,10.2 C0,9.2076 0.8076,8.4 1.8,8.4 L4.2,8.4 C5.1924,8.4 6,9.2076 6,10.2 C6,11.1924 5.1924,12 4.2,12 Z" id="Fill-5"></path>
                    <path d="M11.4,24 C11.0688,24 10.8,23.7312 10.8,23.4 L10.8,18.6 C10.8,18.2688 11.0688,18 11.4,18 C11.7312,18 12,18.2688 12,18.6 L12,23.4 C12,23.7312 11.7312,24 11.4,24" id="Fill-7"></path>
                    <path d="M11.4,12 C11.0688,12 10.8,11.7312 10.8,11.4 L10.8,0.6 C10.8,0.2688 11.0688,0 11.4,0 C11.7312,0 12,0.2688 12,0.6 L12,11.4 C12,11.7312 11.7312,12 11.4,12" id="Fill-9"></path>
                    <path d="M10.2,14.4 C9.8688,14.4 9.6,14.6688 9.6,15 C9.6,15.3312 9.8688,15.6 10.2,15.6 L12.6,15.6 C12.9312,15.6 13.2,15.3312 13.2,15 C13.2,14.6688 12.9312,14.4 12.6,14.4 L10.2,14.4 Z M12.6,16.8 L10.2,16.8 C9.2076,16.8 8.4,15.9924 8.4,15 C8.4,14.0076 9.2076,13.2 10.2,13.2 L12.6,13.2 C13.5924,13.2 14.4,14.0076 14.4,15 C14.4,15.9924 13.5924,16.8 12.6,16.8 Z" id="Fill-11"></path>
                    <path d="M19.8,24 C19.4688,24 19.2,23.7312 19.2,23.4 L19.2,11.4 C19.2,11.0688 19.4688,10.8 19.8,10.8 C20.1312,10.8 20.4,11.0688 20.4,11.4 L20.4,23.4 C20.4,23.7312 20.1312,24 19.8,24" id="Fill-13"></path>
                    <path d="M19.8,4.8 C19.4688,4.8 19.2,4.5312 19.2,4.2 L19.2,0.6 C19.2,0.2688 19.4688,0 19.8,0 C20.1312,0 20.4,0.2688 20.4,0.6 L20.4,4.2 C20.4,4.5312 20.1312,4.8 19.8,4.8" id="Fill-15"></path>
                    <path d="M18.6,7.2 C18.2688,7.2 18,7.4688 18,7.8 C18,8.1312 18.2688,8.4 18.6,8.4 L21,8.4 C21.3312,8.4 21.6,8.1312 21.6,7.8 C21.6,7.4688 21.3312,7.2 21,7.2 L18.6,7.2 Z M21,9.6 L18.6,9.6 C17.6076,9.6 16.8,8.7924 16.8,7.8 C16.8,6.8076 17.6076,6 18.6,6 L21,6 C21.9924,6 22.8,6.8076 22.8,7.8 C22.8,8.7924 21.9924,9.6 21,9.6 Z" id="Fill-17"></path>
                </g>
            </g>
        </g>
    </g>
</svg>
