<?xml version="1.0" encoding="UTF-8"?>
<svg width="24px" height="24px" viewBox="0 0 24 24" version="1.1" xmlns="http://www.w3.org/2000/svg" xmlns:xlink="http://www.w3.org/1999/xlink">
    <!-- Generator: Sketch 49.2 (51160) - http://www.bohemiancoding.com/sketch -->
    <title>Svgs/cxp/grey</title>
    <desc>Created with Sketch.</desc>
    <defs></defs>
    <g id="Styleguide" stroke="none" stroke-width="1" fill="none" fill-rule="evenodd">
        <g id="Styleguide---Base" transform="translate(-457.000000, -3881.000000)" fill="#737373">
            <g id="BB/Base/Icons/cxp/grey" transform="translate(457.000000, 3881.000000)">
                <path d="M13.9534884,1.11625116 L13.3953488,1.11625116 C13.2418605,1.11625116 13.1162791,0.990669767 13.1162791,0.837181395 L13.1162791,0.27904186 C13.1162791,0.125553488 13.2418605,-2.79069767e-05 13.3953488,-2.79069767e-05 L13.9534884,-2.79069767e-05 C14.1069767,-2.79069767e-05 14.2325581,0.125553488 14.2325581,0.27904186 L14.2325581,0.837181395 C14.2325581,0.990669767 14.1069767,1.11625116 13.9534884,1.11625116 Z M14.2325581,10.0464837 L14.2325581,10.6046233 C14.2325581,10.7581116 14.1069767,10.883693 13.9534884,10.883693 L13.3953488,10.883693 C13.2418605,10.883693 13.1162791,10.7581116 13.1162791,10.6046233 L13.1162791,10.0464837 C13.1162791,9.89299535 13.2418605,9.76741395 13.3953488,9.76741395 L13.9534884,9.76741395 C14.1069767,9.76741395 14.2325581,9.89299535 14.2325581,10.0464837 Z M14.2325581,2.23253023 L14.2325581,2.79066977 C14.2325581,2.94415814 14.1069767,3.06973953 13.9534884,3.06973953 L13.3953488,3.06973953 C13.2418605,3.06973953 13.1162791,2.94415814 13.1162791,2.79066977 L13.1162791,2.23253023 C13.1162791,2.07904186 13.2418605,1.95346047 13.3953488,1.95346047 L13.9534884,1.95346047 C14.1069767,1.95346047 14.2325581,2.07904186 14.2325581,2.23253023 Z M14.2325581,8.09299535 L14.2325581,8.65113488 C14.2325581,8.80462326 14.1069767,8.93020465 13.9534884,8.93020465 L13.3953488,8.93020465 C13.2418605,8.93020465 13.1162791,8.80462326 13.1162791,8.65113488 L13.1162791,8.09299535 C13.1162791,7.93950698 13.2418605,7.81392558 13.3953488,7.81392558 L13.9534884,7.81392558 C14.1069767,7.81392558 14.2325581,7.93950698 14.2325581,8.09299535 Z M14.2325581,6.13950698 L14.2325581,6.69764651 C14.2325581,6.85113488 14.1069767,6.97671628 13.9534884,6.97671628 L13.3953488,6.97671628 C13.2418605,6.97671628 13.1162791,6.85113488 13.1162791,6.69764651 L13.1162791,6.13950698 C13.1162791,5.9860186 13.2418605,5.86043721 13.3953488,5.86043721 L13.9534884,5.86043721 C14.1069767,5.86043721 14.2325581,5.9860186 14.2325581,6.13950698 Z M14.2325581,4.1860186 L14.2325581,4.74415814 C14.2325581,4.89764651 14.1069767,5.02322791 13.9534884,5.02322791 L13.3953488,5.02322791 C13.2418605,5.02322791 13.1162791,4.89764651 13.1162791,4.74415814 L13.1162791,4.1860186 C13.1162791,4.03253023 13.2418605,3.90694884 13.3953488,3.90694884 L13.9534884,3.90694884 C14.1069767,3.90694884 14.2325581,4.03253023 14.2325581,4.1860186 Z M15.9069767,1.11625116 L15.3488372,1.11625116 C15.1953488,1.11625116 15.0697674,0.990669767 15.0697674,0.837181395 L15.0697674,0.27904186 C15.0697674,0.125553488 15.1953488,-2.79069767e-05 15.3488372,-2.79069767e-05 L15.9069767,-2.79069767e-05 C16.0604651,-2.79069767e-05 16.1860465,0.125553488 16.1860465,0.27904186 L16.1860465,0.837181395 C16.1860465,0.990669767 16.0604651,1.11625116 15.9069767,1.11625116 Z M23.7209302,1.11625116 L23.1627907,1.11625116 C23.0093023,1.11625116 22.8837209,0.990669767 22.8837209,0.837181395 L22.8837209,0.27904186 C22.8837209,0.125553488 23.0093023,-2.79069767e-05 23.1627907,-2.79069767e-05 L23.7209302,-2.79069767e-05 C23.8744186,-2.79069767e-05 24,0.125553488 24,0.27904186 L24,0.837181395 C24,0.990669767 23.8744186,1.11625116 23.7209302,1.11625116 Z M17.8604651,1.11625116 L17.3023256,1.11625116 C17.1488372,1.11625116 17.0232558,0.990669767 17.0232558,0.837181395 L17.0232558,0.27904186 C17.0232558,0.125553488 17.1488372,-2.79069767e-05 17.3023256,-2.79069767e-05 L17.8604651,-2.79069767e-05 C18.0139535,-2.79069767e-05 18.1395349,0.125553488 18.1395349,0.27904186 L18.1395349,0.837181395 C18.1395349,0.990669767 18.0139535,1.11625116 17.8604651,1.11625116 Z M19.8139535,1.11625116 L19.255814,1.11625116 C19.1023256,1.11625116 18.9767442,0.990669767 18.9767442,0.837181395 L18.9767442,0.27904186 C18.9767442,0.125553488 19.1023256,-2.79069767e-05 19.255814,-2.79069767e-05 L19.8139535,-2.79069767e-05 C19.9674419,-2.79069767e-05 20.0930233,0.125553488 20.0930233,0.27904186 L20.0930233,0.837181395 C20.0930233,0.990669767 19.9674419,1.11625116 19.8139535,1.11625116 Z M21.7674419,1.11625116 L21.2093023,1.11625116 C21.055814,1.11625116 20.9302326,0.990669767 20.9302326,0.837181395 L20.9302326,0.27904186 C20.9302326,0.125553488 21.055814,-2.79069767e-05 21.2093023,-2.79069767e-05 L21.7674419,-2.79069767e-05 C21.9209302,-2.79069767e-05 22.0465116,0.125553488 22.0465116,0.27904186 L22.0465116,0.837181395 C22.0465116,0.990669767 21.9209302,1.11625116 21.7674419,1.11625116 Z M15.9186977,10.883693 L15.3605581,10.883693 C15.2067907,10.883693 15.0814884,10.7581116 15.0814884,10.6046233 L15.0814884,10.0464837 C15.0814884,9.89299535 15.2067907,9.76741395 15.3605581,9.76741395 L15.9186977,9.76741395 C16.072186,9.76741395 16.1977674,9.89299535 16.1977674,10.0464837 L16.1977674,10.6046233 C16.1977674,10.7581116 16.072186,10.883693 15.9186977,10.883693 Z M17.8604651,10.883693 L17.3023256,10.883693 C17.1488372,10.883693 17.0232558,10.7581116 17.0232558,10.6046233 L17.0232558,10.0464837 C17.0232558,9.89299535 17.1488372,9.76741395 17.3023256,9.76741395 L17.8604651,9.76741395 C18.0139535,9.76741395 18.1395349,9.89299535 18.1395349,10.0464837 L18.1395349,10.6046233 C18.1395349,10.7581116 18.0139535,10.883693 17.8604651,10.883693 Z M19.8139535,10.883693 L19.255814,10.883693 C19.1023256,10.883693 18.9767442,10.7581116 18.9767442,10.6046233 L18.9767442,10.0464837 C18.9767442,9.89299535 19.1023256,9.76741395 19.255814,9.76741395 L19.8139535,9.76741395 C19.9674419,9.76741395 20.0930233,9.89299535 20.0930233,10.0464837 L20.0930233,10.6046233 C20.0930233,10.7581116 19.9674419,10.883693 19.8139535,10.883693 Z M21.7674419,10.883693 L21.2093023,10.883693 C21.055814,10.883693 20.9302326,10.7581116 20.9302326,10.6046233 L20.9302326,10.0464837 C20.9302326,9.89299535 21.055814,9.76741395 21.2093023,9.76741395 L21.7674419,9.76741395 C21.9209302,9.76741395 22.0465116,9.89299535 22.0465116,10.0464837 L22.0465116,10.6046233 C22.0465116,10.7581116 21.9209302,10.883693 21.7674419,10.883693 Z M24,10.0464837 L24,10.6046233 C24,10.7581116 23.8744186,10.883693 23.7209302,10.883693 L23.1627907,10.883693 C23.0093023,10.883693 22.8837209,10.7581116 22.8837209,10.6046233 L22.8837209,10.0464837 C22.8837209,9.89299535 23.0093023,9.76741395 23.1627907,9.76741395 L23.7209302,9.76741395 C23.8744186,9.76741395 24,9.89299535 24,10.0464837 Z M24,2.23253023 L24,2.79066977 C24,2.94415814 23.8744186,3.06973953 23.7209302,3.06973953 L23.1627907,3.06973953 C23.0093023,3.06973953 22.8837209,2.94415814 22.8837209,2.79066977 L22.8837209,2.23253023 C22.8837209,2.07904186 23.0093023,1.95346047 23.1627907,1.95346047 L23.7209302,1.95346047 C23.8744186,1.95346047 24,2.07904186 24,2.23253023 Z M24,8.09299535 L24,8.65113488 C24,8.80462326 23.8744186,8.93020465 23.7209302,8.93020465 L23.1627907,8.93020465 C23.0093023,8.93020465 22.8837209,8.80462326 22.8837209,8.65113488 L22.8837209,8.09299535 C22.8837209,7.93950698 23.0093023,7.81392558 23.1627907,7.81392558 L23.7209302,7.81392558 C23.8744186,7.81392558 24,7.93950698 24,8.09299535 Z M24,6.13950698 L24,6.69764651 C24,6.85113488 23.8744186,6.97671628 23.7209302,6.97671628 L23.1627907,6.97671628 C23.0093023,6.97671628 22.8837209,6.85113488 22.8837209,6.69764651 L22.8837209,6.13950698 C22.8837209,5.9860186 23.0093023,5.86043721 23.1627907,5.86043721 L23.7209302,5.86043721 C23.8744186,5.86043721 24,5.9860186 24,6.13950698 Z M24,4.1860186 L24,4.74415814 C24,4.89764651 23.8744186,5.02322791 23.7209302,5.02322791 L23.1627907,5.02322791 C23.0093023,5.02322791 22.8837209,4.89764651 22.8837209,4.74415814 L22.8837209,4.1860186 C22.8837209,4.03253023 23.0093023,3.90694884 23.1627907,3.90694884 L23.7209302,3.90694884 C23.8744186,3.90694884 24,4.03253023 24,4.1860186 Z M0.837209302,14.2325302 L0.279069767,14.2325302 C0.125581395,14.2325302 0,14.1069488 0,13.9534605 L0,13.3953209 C0,13.2418326 0.125581395,13.1162512 0.279069767,13.1162512 L0.837209302,13.1162512 C0.990697674,13.1162512 1.11627907,13.2418326 1.11627907,13.3953209 L1.11627907,13.9534605 C1.11627907,14.1069488 0.990697674,14.2325302 0.837209302,14.2325302 Z M1.11627907,23.1627628 L1.11627907,23.7209023 C1.11627907,23.8743907 0.990697674,23.9999721 0.837209302,23.9999721 L0.279069767,23.9999721 C0.125581395,23.9999721 0,23.8743907 0,23.7209023 L0,23.1627628 C0,23.0092744 0.125581395,22.883693 0.279069767,22.883693 L0.837209302,22.883693 C0.990697674,22.883693 1.11627907,23.0092744 1.11627907,23.1627628 Z M1.11627907,15.3488093 L1.11627907,15.9069488 C1.11627907,16.0604372 0.990697674,16.1860186 0.837209302,16.1860186 L0.279069767,16.1860186 C0.125581395,16.1860186 0,16.0604372 0,15.9069488 L0,15.3488093 C0,15.1953209 0.125581395,15.0697395 0.279069767,15.0697395 L0.837209302,15.0697395 C0.990697674,15.0697395 1.11627907,15.1953209 1.11627907,15.3488093 Z M1.11627907,21.2092744 L1.11627907,21.767414 C1.11627907,21.9209023 0.990697674,22.0464837 0.837209302,22.0464837 L0.279069767,22.0464837 C0.125581395,22.0464837 0,21.9209023 0,21.767414 L0,21.2092744 C0,21.055786 0.125581395,20.9302047 0.279069767,20.9302047 L0.837209302,20.9302047 C0.990697674,20.9302047 1.11627907,21.055786 1.11627907,21.2092744 Z M1.11627907,19.255786 L1.11627907,19.8139256 C1.11627907,19.967414 0.990697674,20.0929953 0.837209302,20.0929953 L0.279069767,20.0929953 C0.125581395,20.0929953 0,19.967414 0,19.8139256 L0,19.255786 C0,19.1022977 0.125581395,18.9767163 0.279069767,18.9767163 L0.837209302,18.9767163 C0.990697674,18.9767163 1.11627907,19.1022977 1.11627907,19.255786 Z M1.11627907,17.3022977 L1.11627907,17.8604372 C1.11627907,18.0139256 0.990697674,18.139507 0.837209302,18.139507 L0.279069767,18.139507 C0.125581395,18.139507 0,18.0139256 0,17.8604372 L0,17.3022977 C0,17.1488093 0.125581395,17.0232279 0.279069767,17.0232279 L0.837209302,17.0232279 C0.990697674,17.0232279 1.11627907,17.1488093 1.11627907,17.3022977 Z M2.79069767,14.2325302 L2.23255814,14.2325302 C2.07906977,14.2325302 1.95348837,14.1069488 1.95348837,13.9534605 L1.95348837,13.3953209 C1.95348837,13.2418326 2.07906977,13.1162512 2.23255814,13.1162512 L2.79069767,13.1162512 C2.94418605,13.1162512 3.06976744,13.2418326 3.06976744,13.3953209 L3.06976744,13.9534605 C3.06976744,14.1069488 2.94418605,14.2325302 2.79069767,14.2325302 Z M10.6046512,14.2325302 L10.0465116,14.2325302 C9.89302326,14.2325302 9.76744186,14.1069488 9.76744186,13.9534605 L9.76744186,13.3953209 C9.76744186,13.2418326 9.89302326,13.1162512 10.0465116,13.1162512 L10.6046512,13.1162512 C10.7581395,13.1162512 10.8837209,13.2418326 10.8837209,13.3953209 L10.8837209,13.9534605 C10.8837209,14.1069488 10.7581395,14.2325302 10.6046512,14.2325302 Z M4.74418605,14.2325302 L4.18604651,14.2325302 C4.03255814,14.2325302 3.90697674,14.1069488 3.90697674,13.9534605 L3.90697674,13.3953209 C3.90697674,13.2418326 4.03255814,13.1162512 4.18604651,13.1162512 L4.74418605,13.1162512 C4.89767442,13.1162512 5.02325581,13.2418326 5.02325581,13.3953209 L5.02325581,13.9534605 C5.02325581,14.1069488 4.89767442,14.2325302 4.74418605,14.2325302 Z M6.69767442,14.2325302 L6.13953488,14.2325302 C5.98604651,14.2325302 5.86046512,14.1069488 5.86046512,13.9534605 L5.86046512,13.3953209 C5.86046512,13.2418326 5.98604651,13.1162512 6.13953488,13.1162512 L6.69767442,13.1162512 C6.85116279,13.1162512 6.97674419,13.2418326 6.97674419,13.3953209 L6.97674419,13.9534605 C6.97674419,14.1069488 6.85116279,14.2325302 6.69767442,14.2325302 Z M8.65116279,14.2325302 L8.09302326,14.2325302 C7.93953488,14.2325302 7.81395349,14.1069488 7.81395349,13.9534605 L7.81395349,13.3953209 C7.81395349,13.2418326 7.93953488,13.1162512 8.09302326,13.1162512 L8.65116279,13.1162512 C8.80465116,13.1162512 8.93023256,13.2418326 8.93023256,13.3953209 L8.93023256,13.9534605 C8.93023256,14.1069488 8.80465116,14.2325302 8.65116279,14.2325302 Z M2.8024186,23.9999721 L2.24427907,23.9999721 C2.09051163,23.9999721 1.9652093,23.8743907 1.9652093,23.7209023 L1.9652093,23.1627628 C1.9652093,23.0092744 2.09051163,22.883693 2.24427907,22.883693 L2.8024186,22.883693 C2.95590698,22.883693 3.08148837,23.0092744 3.08148837,23.1627628 L3.08148837,23.7209023 C3.08148837,23.8743907 2.95590698,23.9999721 2.8024186,23.9999721 Z M4.74418605,23.9999721 L4.18604651,23.9999721 C4.03255814,23.9999721 3.90697674,23.8743907 3.90697674,23.7209023 L3.90697674,23.1627628 C3.90697674,23.0092744 4.03255814,22.883693 4.18604651,22.883693 L4.74418605,22.883693 C4.89767442,22.883693 5.02325581,23.0092744 5.02325581,23.1627628 L5.02325581,23.7209023 C5.02325581,23.8743907 4.89767442,23.9999721 4.74418605,23.9999721 Z M6.69767442,23.9999721 L6.13953488,23.9999721 C5.98604651,23.9999721 5.86046512,23.8743907 5.86046512,23.7209023 L5.86046512,23.1627628 C5.86046512,23.0092744 5.98604651,22.883693 6.13953488,22.883693 L6.69767442,22.883693 C6.85116279,22.883693 6.97674419,23.0092744 6.97674419,23.1627628 L6.97674419,23.7209023 C6.97674419,23.8743907 6.85116279,23.9999721 6.69767442,23.9999721 Z M8.65116279,23.9999721 L8.09302326,23.9999721 C7.93953488,23.9999721 7.81395349,23.8743907 7.81395349,23.7209023 L7.81395349,23.1627628 C7.81395349,23.0092744 7.93953488,22.883693 8.09302326,22.883693 L8.65116279,22.883693 C8.80465116,22.883693 8.93023256,23.0092744 8.93023256,23.1627628 L8.93023256,23.7209023 C8.93023256,23.8743907 8.80465116,23.9999721 8.65116279,23.9999721 Z M10.8837209,23.1627628 L10.8837209,23.7209023 C10.8837209,23.8743907 10.7581395,23.9999721 10.6046512,23.9999721 L10.0465116,23.9999721 C9.89302326,23.9999721 9.76744186,23.8743907 9.76744186,23.7209023 L9.76744186,23.1627628 C9.76744186,23.0092744 9.89302326,22.883693 10.0465116,22.883693 L10.6046512,22.883693 C10.7581395,22.883693 10.8837209,23.0092744 10.8837209,23.1627628 Z M10.8837209,15.3488093 L10.8837209,15.9069488 C10.8837209,16.0604372 10.7581395,16.1860186 10.6046512,16.1860186 L10.0465116,16.1860186 C9.89302326,16.1860186 9.76744186,16.0604372 9.76744186,15.9069488 L9.76744186,15.3488093 C9.76744186,15.1953209 9.89302326,15.0697395 10.0465116,15.0697395 L10.6046512,15.0697395 C10.7581395,15.0697395 10.8837209,15.1953209 10.8837209,15.3488093 Z M10.8837209,21.2092744 L10.8837209,21.767414 C10.8837209,21.9209023 10.7581395,22.0464837 10.6046512,22.0464837 L10.0465116,22.0464837 C9.89302326,22.0464837 9.76744186,21.9209023 9.76744186,21.767414 L9.76744186,21.2092744 C9.76744186,21.055786 9.89302326,20.9302047 10.0465116,20.9302047 L10.6046512,20.9302047 C10.7581395,20.9302047 10.8837209,21.055786 10.8837209,21.2092744 Z M10.8837209,19.255786 L10.8837209,19.8139256 C10.8837209,19.967414 10.7581395,20.0929953 10.6046512,20.0929953 L10.0465116,20.0929953 C9.89302326,20.0929953 9.76744186,19.967414 9.76744186,19.8139256 L9.76744186,19.255786 C9.76744186,19.1022977 9.89302326,18.9767163 10.0465116,18.9767163 L10.6046512,18.9767163 C10.7581395,18.9767163 10.8837209,19.1022977 10.8837209,19.255786 Z M10.8837209,17.3022977 L10.8837209,17.8604372 C10.8837209,18.0139256 10.7581395,18.139507 10.6046512,18.139507 L10.0465116,18.139507 C9.89302326,18.139507 9.76744186,18.0139256 9.76744186,17.8604372 L9.76744186,17.3022977 C9.76744186,17.1488093 9.89302326,17.0232279 10.0465116,17.0232279 L10.6046512,17.0232279 C10.7581395,17.0232279 10.8837209,17.1488093 10.8837209,17.3022977 Z M13.9534884,14.2325302 L13.3953488,14.2325302 C13.2418605,14.2325302 13.1162791,14.1069488 13.1162791,13.9534605 L13.1162791,13.3953209 C13.1162791,13.2418326 13.2418605,13.1162512 13.3953488,13.1162512 L13.9534884,13.1162512 C14.1069767,13.1162512 14.2325581,13.2418326 14.2325581,13.3953209 L14.2325581,13.9534605 C14.2325581,14.1069488 14.1069767,14.2325302 13.9534884,14.2325302 Z M14.2325581,23.1627628 L14.2325581,23.7209023 C14.2325581,23.8743907 14.1069767,23.9999721 13.9534884,23.9999721 L13.3953488,23.9999721 C13.2418605,23.9999721 13.1162791,23.8743907 13.1162791,23.7209023 L13.1162791,23.1627628 C13.1162791,23.0092744 13.2418605,22.883693 13.3953488,22.883693 L13.9534884,22.883693 C14.1069767,22.883693 14.2325581,23.0092744 14.2325581,23.1627628 Z M14.2325581,15.3488093 L14.2325581,15.9069488 C14.2325581,16.0604372 14.1069767,16.1860186 13.9534884,16.1860186 L13.3953488,16.1860186 C13.2418605,16.1860186 13.1162791,16.0604372 13.1162791,15.9069488 L13.1162791,15.3488093 C13.1162791,15.1953209 13.2418605,15.0697395 13.3953488,15.0697395 L13.9534884,15.0697395 C14.1069767,15.0697395 14.2325581,15.1953209 14.2325581,15.3488093 Z M14.2325581,21.2092744 L14.2325581,21.767414 C14.2325581,21.9209023 14.1069767,22.0464837 13.9534884,22.0464837 L13.3953488,22.0464837 C13.2418605,22.0464837 13.1162791,21.9209023 13.1162791,21.767414 L13.1162791,21.2092744 C13.1162791,21.055786 13.2418605,20.9302047 13.3953488,20.9302047 L13.9534884,20.9302047 C14.1069767,20.9302047 14.2325581,21.055786 14.2325581,21.2092744 Z M14.2325581,19.255786 L14.2325581,19.8139256 C14.2325581,19.967414 14.1069767,20.0929953 13.9534884,20.0929953 L13.3953488,20.0929953 C13.2418605,20.0929953 13.1162791,19.967414 13.1162791,19.8139256 L13.1162791,19.255786 C13.1162791,19.1022977 13.2418605,18.9767163 13.3953488,18.9767163 L13.9534884,18.9767163 C14.1069767,18.9767163 14.2325581,19.1022977 14.2325581,19.255786 Z M14.2325581,17.3022977 L14.2325581,17.8604372 C14.2325581,18.0139256 14.1069767,18.139507 13.9534884,18.139507 L13.3953488,18.139507 C13.2418605,18.139507 13.1162791,18.0139256 13.1162791,17.8604372 L13.1162791,17.3022977 C13.1162791,17.1488093 13.2418605,17.0232279 13.3953488,17.0232279 L13.9534884,17.0232279 C14.1069767,17.0232279 14.2325581,17.1488093 14.2325581,17.3022977 Z M15.9069767,14.2325302 L15.3488372,14.2325302 C15.1953488,14.2325302 15.0697674,14.1069488 15.0697674,13.9534605 L15.0697674,13.3953209 C15.0697674,13.2418326 15.1953488,13.1162512 15.3488372,13.1162512 L15.9069767,13.1162512 C16.0604651,13.1162512 16.1860465,13.2418326 16.1860465,13.3953209 L16.1860465,13.9534605 C16.1860465,14.1069488 16.0604651,14.2325302 15.9069767,14.2325302 Z M23.7209302,14.2325302 L23.1627907,14.2325302 C23.0093023,14.2325302 22.8837209,14.1069488 22.8837209,13.9534605 L22.8837209,13.3953209 C22.8837209,13.2418326 23.0093023,13.1162512 23.1627907,13.1162512 L23.7209302,13.1162512 C23.8744186,13.1162512 24,13.2418326 24,13.3953209 L24,13.9534605 C24,14.1069488 23.8744186,14.2325302 23.7209302,14.2325302 Z M17.8604651,14.2325302 L17.3023256,14.2325302 C17.1488372,14.2325302 17.0232558,14.1069488 17.0232558,13.9534605 L17.0232558,13.3953209 C17.0232558,13.2418326 17.1488372,13.1162512 17.3023256,13.1162512 L17.8604651,13.1162512 C18.0139535,13.1162512 18.1395349,13.2418326 18.1395349,13.3953209 L18.1395349,13.9534605 C18.1395349,14.1069488 18.0139535,14.2325302 17.8604651,14.2325302 Z M19.8139535,14.2325302 L19.255814,14.2325302 C19.1023256,14.2325302 18.9767442,14.1069488 18.9767442,13.9534605 L18.9767442,13.3953209 C18.9767442,13.2418326 19.1023256,13.1162512 19.255814,13.1162512 L19.8139535,13.1162512 C19.9674419,13.1162512 20.0930233,13.2418326 20.0930233,13.3953209 L20.0930233,13.9534605 C20.0930233,14.1069488 19.9674419,14.2325302 19.8139535,14.2325302 Z M21.7674419,14.2325302 L21.2093023,14.2325302 C21.055814,14.2325302 20.9302326,14.1069488 20.9302326,13.9534605 L20.9302326,13.3953209 C20.9302326,13.2418326 21.055814,13.1162512 21.2093023,13.1162512 L21.7674419,13.1162512 C21.9209302,13.1162512 22.0465116,13.2418326 22.0465116,13.3953209 L22.0465116,13.9534605 C22.0465116,14.1069488 21.9209302,14.2325302 21.7674419,14.2325302 Z M15.9186977,23.9999721 L15.3605581,23.9999721 C15.2067907,23.9999721 15.0814884,23.8743907 15.0814884,23.7209023 L15.0814884,23.1627628 C15.0814884,23.0092744 15.2067907,22.883693 15.3605581,22.883693 L15.9186977,22.883693 C16.072186,22.883693 16.1977674,23.0092744 16.1977674,23.1627628 L16.1977674,23.7209023 C16.1977674,23.8743907 16.072186,23.9999721 15.9186977,23.9999721 Z M17.8604651,23.9999721 L17.3023256,23.9999721 C17.1488372,23.9999721 17.0232558,23.8743907 17.0232558,23.7209023 L17.0232558,23.1627628 C17.0232558,23.0092744 17.1488372,22.883693 17.3023256,22.883693 L17.8604651,22.883693 C18.0139535,22.883693 18.1395349,23.0092744 18.1395349,23.1627628 L18.1395349,23.7209023 C18.1395349,23.8743907 18.0139535,23.9999721 17.8604651,23.9999721 Z M19.8139535,23.9999721 L19.255814,23.9999721 C19.1023256,23.9999721 18.9767442,23.8743907 18.9767442,23.7209023 L18.9767442,23.1627628 C18.9767442,23.0092744 19.1023256,22.883693 19.255814,22.883693 L19.8139535,22.883693 C19.9674419,22.883693 20.0930233,23.0092744 20.0930233,23.1627628 L20.0930233,23.7209023 C20.0930233,23.8743907 19.9674419,23.9999721 19.8139535,23.9999721 Z M21.7674419,23.9999721 L21.2093023,23.9999721 C21.055814,23.9999721 20.9302326,23.8743907 20.9302326,23.7209023 L20.9302326,23.1627628 C20.9302326,23.0092744 21.055814,22.883693 21.2093023,22.883693 L21.7674419,22.883693 C21.9209302,22.883693 22.0465116,23.0092744 22.0465116,23.1627628 L22.0465116,23.7209023 C22.0465116,23.8743907 21.9209302,23.9999721 21.7674419,23.9999721 Z M24,23.1627628 L24,23.7209023 C24,23.8743907 23.8744186,23.9999721 23.7209302,23.9999721 L23.1627907,23.9999721 C23.0093023,23.9999721 22.8837209,23.8743907 22.8837209,23.7209023 L22.8837209,23.1627628 C22.8837209,23.0092744 23.0093023,22.883693 23.1627907,22.883693 L23.7209302,22.883693 C23.8744186,22.883693 24,23.0092744 24,23.1627628 Z M24,15.3488093 L24,15.9069488 C24,16.0604372 23.8744186,16.1860186 23.7209302,16.1860186 L23.1627907,16.1860186 C23.0093023,16.1860186 22.8837209,16.0604372 22.8837209,15.9069488 L22.8837209,15.3488093 C22.8837209,15.1953209 23.0093023,15.0697395 23.1627907,15.0697395 L23.7209302,15.0697395 C23.8744186,15.0697395 24,15.1953209 24,15.3488093 Z M24,21.2092744 L24,21.767414 C24,21.9209023 23.8744186,22.0464837 23.7209302,22.0464837 L23.1627907,22.0464837 C23.0093023,22.0464837 22.8837209,21.9209023 22.8837209,21.767414 L22.8837209,21.2092744 C22.8837209,21.055786 23.0093023,20.9302047 23.1627907,20.9302047 L23.7209302,20.9302047 C23.8744186,20.9302047 24,21.055786 24,21.2092744 Z M24,19.255786 L24,19.8139256 C24,19.967414 23.8744186,20.0929953 23.7209302,20.0929953 L23.1627907,20.0929953 C23.0093023,20.0929953 22.8837209,19.967414 22.8837209,19.8139256 L22.8837209,19.255786 C22.8837209,19.1022977 23.0093023,18.9767163 23.1627907,18.9767163 L23.7209302,18.9767163 C23.8744186,18.9767163 24,19.1022977 24,19.255786 Z M24,17.3022977 L24,17.8604372 C24,18.0139256 23.8744186,18.139507 23.7209302,18.139507 L23.1627907,18.139507 C23.0093023,18.139507 22.8837209,18.0139256 22.8837209,17.8604372 L22.8837209,17.3022977 C22.8837209,17.1488093 23.0093023,17.0232279 23.1627907,17.0232279 L23.7209302,17.0232279 C23.8744186,17.0232279 24,17.1488093 24,17.3022977 Z M9.76744186,-2.79069767e-05 C10.3813953,-2.79069767e-05 10.8837209,0.502297674 10.8837209,1.11625116 L10.8837209,9.76741395 C10.8837209,10.3813674 10.3813953,10.883693 9.76744186,10.883693 L1.11627907,10.883693 C0.502325581,10.883693 0,10.3813674 0,9.76741395 L0,1.11625116 C0,0.502297674 0.502325581,-2.79069767e-05 1.11627907,-2.79069767e-05 L9.76744186,-2.79069767e-05 Z M1.11627907,9.76741395 L9.76744186,9.76741395 L9.76744186,1.11625116 L1.11627907,1.11625116 L1.11627907,9.76741395 Z" id="Combined-Shape"></path>
            </g>
        </g>
    </g>
</svg>
