<?xml version="1.0" encoding="UTF-8"?>
<svg width="24px" height="20px" viewBox="0 0 24 20" version="1.1" xmlns="http://www.w3.org/2000/svg" xmlns:xlink="http://www.w3.org/1999/xlink">
    <!-- Generator: Sketch 49.2 (51160) - http://www.bohemiancoding.com/sketch -->
    <title>Svgs/dbs/grey</title>
    <desc>Created with Sketch.</desc>
    <defs></defs>
    <g id="Styleguide" stroke="none" stroke-width="1" fill="none" fill-rule="evenodd">
        <g id="Styleguide---Base" transform="translate(-502.000000, -3883.000000)" fill="#737373">
            <g id="BB/Base/Icons/dbs/grey" transform="translate(502.000000, 3881.000000)">
                <path d="M20.2107805,3.12163897 C20.2107805,4.16651702 19.3608293,5.01646824 18.3159512,5.01646824 C17.2710732,5.01646824 16.4214146,4.16651702 16.4214146,3.12163897 C16.4214146,2.07676093 17.2710732,1.22680971 18.3159512,1.22680971 C19.3608293,1.22680971 20.2107805,2.07676093 20.2107805,3.12163897 M18.3159512,10.0690536 C19.3608293,10.0690536 20.2107805,10.9190048 20.2107805,11.9635902 C20.2107805,13.0087609 19.3608293,13.8584195 18.3159512,13.8584195 C17.2710732,13.8584195 16.4214146,13.0087609 16.4214146,11.9635902 C16.4214146,10.9190048 17.2710732,10.0690536 18.3159512,10.0690536 M18.3159512,18.9110048 C19.3608293,18.9110048 20.2107805,19.7612487 20.2107805,20.8058341 C20.2107805,21.8507121 19.3608293,22.7006634 18.3159512,22.7006634 C17.2710732,22.7006634 16.4214146,21.8507121 16.4214146,20.8058341 C16.4214146,19.7612487 17.2710732,18.9110048 18.3159512,18.9110048 M5.68434146,13.8584195 C4.6397561,13.8584195 3.78980488,13.0087609 3.78980488,11.9635902 C3.78980488,10.9190048 4.6397561,10.0690536 5.68434146,10.0690536 C6.72892683,10.0690536 7.57917073,10.9190048 7.57917073,11.9635902 C7.57917073,13.0087609 6.72892683,13.8584195 5.68434146,13.8584195 M15.221122,2.49002922 L13.2633659,2.49002922 C12.2184878,2.49002922 11.3685366,3.33998044 11.3685366,4.38485849 L11.3685366,11.3322731 L8.77946341,11.3322731 C8.48560976,9.8925658 7.21039024,8.8058341 5.68434146,8.8058341 C3.9437561,8.8058341 2.52658537,10.2232975 2.52658537,11.9635902 C2.52658537,13.7044682 3.9437561,15.121639 5.68434146,15.121639 C7.20892683,15.121639 8.48473171,14.0349073 8.77946341,12.5951999 L11.3685366,12.5951999 L11.3685366,19.5426146 C11.3685366,20.5874926 12.2184878,21.4374439 13.2633659,21.4374439 L15.221122,21.4374439 C15.5146829,22.8771512 16.7899024,23.9635902 18.3159512,23.9635902 C20.0565366,23.9635902 21.4737073,22.5464195 21.4737073,20.8058341 C21.4737073,19.0652487 20.0565366,17.6477853 18.3159512,17.6477853 C16.7910732,17.6477853 15.5158537,18.7348097 15.221122,20.1742243 L13.2633659,20.1742243 C12.9141951,20.1742243 12.6317561,19.8917853 12.6317561,19.5426146 L12.6317561,12.5951999 L15.221122,12.5951999 C15.5146829,14.0349073 16.7899024,15.121639 18.3159512,15.121639 C20.0565366,15.121639 21.4737073,13.7044682 21.4737073,11.9635902 C21.4737073,10.2232975 20.0565366,8.8058341 18.3159512,8.8058341 C16.7910732,8.8058341 15.5158537,9.8925658 15.221122,11.3322731 L12.6317561,11.3322731 L12.6317561,4.38485849 C12.6317561,4.03598044 12.9141951,3.75324873 13.2633659,3.75324873 L15.221122,3.75324873 C15.5146829,5.19295605 16.7899024,6.27968775 18.3159512,6.27968775 C20.0565366,6.27968775 21.4737073,4.86222434 21.4737073,3.12163897 C21.4737073,1.38105361 20.0565366,-0.0364098062 18.3159512,-0.0364098062 C16.7910732,-0.0364098062 15.5158537,1.05061458 15.221122,2.49002922" id="Fill-1" transform="translate(12.000146, 11.963590) rotate(90.000000) translate(-12.000146, -11.963590) "></path>
            </g>
        </g>
    </g>
</svg>
