<?xml version="1.0" encoding="UTF-8"?>
<svg width="24px" height="16px" viewBox="0 0 24 16" version="1.1" xmlns="http://www.w3.org/2000/svg" xmlns:xlink="http://www.w3.org/1999/xlink">
    <!-- Generator: Sketch 49.2 (51160) - http://www.bohemiancoding.com/sketch -->
    <title>Svgs/entitlements/grey</title>
    <desc>Created with Sketch.</desc>
    <defs>
        <path d="M16.3418177,13.1807736 C17.2831112,13.1807736 18.328977,13.3202224 19.4794468,13.5991241 C20.751936,13.93032 21.7890863,14.3573819 22.5909289,14.8803226 C23.5322223,15.5078516 24.0028619,16.213811 24.0028619,16.9982222 L24.0028619,19.7175007 L17.4661348,19.7175007 L17.4661348,16.9982222 C17.4661348,15.5165567 16.7514598,14.2615176 15.3220883,13.2330674 C15.5661274,13.1982047 15.9060338,13.1807736 16.3418177,13.1807736 Z M7.66104416,13.1807736 C8.60233757,13.1807736 9.6394879,13.3202224 10.7725263,13.5991241 C12.0450155,13.93032 13.0734503,14.3573819 13.8578615,14.8803226 C14.7991549,15.5078516 15.2697945,16.213811 15.2697945,16.9982222 L15.2697945,19.7175007 L0,19.7175007 L0,16.9982222 C0,16.213811 0.470639645,15.5078516 1.41193305,14.8803226 C2.21377559,14.3573819 3.25092591,13.93032 4.52341515,13.5991241 C5.67388487,13.3202224 6.71975075,13.1807736 7.66104416,13.1807736 Z M7.66104416,11.0367271 C7.0858093,11.0367271 6.54544526,10.8885628 6.03993584,10.5922297 C5.53442642,10.2958965 5.13351116,9.89498129 4.83717805,9.38947187 C4.54084494,8.88396245 4.39268061,8.34359841 4.39268061,7.76836355 C4.39268061,7.19312869 4.54084494,6.65276465 4.83717805,6.14725523 C5.13351116,5.64174581 5.53442642,5.24083055 6.03993584,4.94449744 C6.54544526,4.64816433 7.0858093,4.5 7.66104416,4.5 C8.23627902,4.5 8.77228528,4.64816433 9.26907903,4.94449744 C9.76587277,5.24083055 10.1580725,5.63738803 10.4456899,6.13418177 C10.7333073,6.63097552 10.8771139,7.17569733 10.8771139,7.76836355 C10.8771139,8.36102977 10.7333073,8.90575158 10.4456899,9.40254532 C10.1580725,9.89933907 9.76587277,10.2958965 9.26907903,10.5922297 C8.77228528,10.8885628 8.23627902,11.0367271 7.66104416,11.0367271 Z M16.3418177,11.0367271 C15.7665829,11.0367271 15.2262189,10.8885628 14.7207094,10.5922297 C14.2152,10.2958965 13.8142848,9.89498129 13.5179516,9.38947187 C13.2216185,8.88396245 13.0734542,8.34359841 13.0734542,7.76836355 C13.0734542,7.19312869 13.2216185,6.65276465 13.5179516,6.14725523 C13.8142848,5.64174581 14.2152,5.24083055 14.7207094,4.94449744 C15.2262189,4.64816433 15.7665829,4.5 16.3418177,4.5 C16.9170526,4.5 17.4574166,4.64816433 17.9629261,4.94449744 C18.4684355,5.24083055 18.8693507,5.64174581 19.1656839,6.14725523 C19.462017,6.65276465 19.6101813,7.19312869 19.6101813,7.76836355 C19.6101813,8.34359841 19.462017,8.88396245 19.1656839,9.38947187 C18.8693507,9.89498129 18.4684355,10.2958965 17.9629261,10.5922297 C17.4574166,10.8885628 16.9170526,11.0367271 16.3418177,11.0367271 Z" id="path-1"></path>
    </defs>
    <g id="Styleguide" stroke="none" stroke-width="1" fill="none" fill-rule="evenodd">
        <g id="Styleguide---Base" transform="translate(-546.000000, -3885.000000)">
            <g id="BB/Base/Icons/entitlements/grey" transform="translate(546.000000, 3881.000000)">
                <mask id="mask-2" fill="white">
                    <use xlink:href="#path-1"></use>
                </mask>
                <use id="Mask" fill="#737373" fill-rule="evenodd" xlink:href="#path-1"></use>
            </g>
        </g>
    </g>
</svg>
