<?xml version="1.0" encoding="UTF-8"?>
<svg width="24px" height="24px" viewBox="0 0 24 24" version="1.1" xmlns="http://www.w3.org/2000/svg" xmlns:xlink="http://www.w3.org/1999/xlink">
    <!-- Generator: Sketch 49.2 (51160) - http://www.bohemiancoding.com/sketch -->
    <title>Svgs/forms/grey</title>
    <desc>Created with Sketch.</desc>
    <defs></defs>
    <g id="Styleguide" stroke="none" stroke-width="1" fill="none" fill-rule="evenodd">
        <g id="Styleguide---Base" transform="translate(-590.000000, -3881.000000)" fill="#737373">
            <g id="BB/Base/Icons/forms/grey" transform="translate(590.000000, 3881.000000)">
                <g id="Page-1" transform="translate(0.750000, 0.000000)">
                    <path d="M10.1052632,8.84210526 L12.6315789,8.84210526 L12.6315789,5.05263158 L10.1052632,5.05263158 L10.1052632,8.84210526 Z M13.2631579,10.1052632 L9.47368421,10.1052632 C9.12505263,10.1052632 8.84210526,9.82231579 8.84210526,9.47368421 L8.84210526,4.42105263 C8.84210526,4.07242105 9.12505263,3.78947368 9.47368421,3.78947368 L13.2631579,3.78947368 C13.6117895,3.78947368 13.8947368,4.07242105 13.8947368,4.42105263 L13.8947368,9.47368421 C13.8947368,9.82231579 13.6117895,10.1052632 13.2631579,10.1052632 Z" id="Fill-1"></path>
                    <path d="M6.94736842,5.05263158 L4.42105263,5.05263158 C4.07242105,5.05263158 3.78947368,4.76968421 3.78947368,4.42105263 C3.78947368,4.07242105 4.07242105,3.78947368 4.42105263,3.78947368 L6.94736842,3.78947368 C7.296,3.78947368 7.57894737,4.07242105 7.57894737,4.42105263 C7.57894737,4.76968421 7.296,5.05263158 6.94736842,5.05263158" id="Fill-3"></path>
                    <path d="M6.94736842,7.57894737 L4.42105263,7.57894737 C4.07242105,7.57894737 3.78947368,7.296 3.78947368,6.94736842 C3.78947368,6.59873684 4.07242105,6.31578947 4.42105263,6.31578947 L6.94736842,6.31578947 C7.296,6.31578947 7.57894737,6.59873684 7.57894737,6.94736842 C7.57894737,7.296 7.296,7.57894737 6.94736842,7.57894737" id="Fill-4"></path>
                    <path d="M6.94736842,10.1052632 L4.42105263,10.1052632 C4.07242105,10.1052632 3.78947368,9.82231579 3.78947368,9.47368421 C3.78947368,9.12505263 4.07242105,8.84210526 4.42105263,8.84210526 L6.94736842,8.84210526 C7.296,8.84210526 7.57894737,9.12505263 7.57894737,9.47368421 C7.57894737,9.82231579 7.296,10.1052632 6.94736842,10.1052632" id="Fill-5"></path>
                    <path d="M13.2631579,12.6315789 L4.42105263,12.6315789 C4.07242105,12.6315789 3.78947368,12.3486316 3.78947368,12 C3.78947368,11.6513684 4.07242105,11.3684211 4.42105263,11.3684211 L13.2631579,11.3684211 C13.6117895,11.3684211 13.8947368,11.6513684 13.8947368,12 C13.8947368,12.3486316 13.6117895,12.6315789 13.2631579,12.6315789" id="Fill-6"></path>
                    <path d="M13.2631579,15.1578947 L4.42105263,15.1578947 C4.07242105,15.1578947 3.78947368,14.8749474 3.78947368,14.5263158 C3.78947368,14.1776842 4.07242105,13.8947368 4.42105263,13.8947368 L13.2631579,13.8947368 C13.6117895,13.8947368 13.8947368,14.1776842 13.8947368,14.5263158 C13.8947368,14.8749474 13.6117895,15.1578947 13.2631579,15.1578947" id="Fill-7"></path>
                    <path d="M21.4736842,22.1052632 C21.4736842,22.4538947 21.1907368,22.7368421 20.8421053,22.7368421 L6.94736842,22.7368421 C6.59873684,22.7368421 6.31578947,22.4538947 6.31578947,22.1052632 L6.31578947,21.4736842 L18.3157895,21.4736842 C19.3604211,21.4736842 20.2105263,20.6235789 20.2105263,19.5789474 L20.2105263,6.31578947 L20.8421053,6.31578947 C21.1907368,6.31578947 21.4736842,6.59873684 21.4736842,6.94736842 L21.4736842,22.1052632 Z M3.78947368,19.5789474 L3.78947368,18.9473684 L15.7894737,18.9473684 C16.8341053,18.9473684 17.6842105,18.0972632 17.6842105,17.0526316 L17.6842105,3.78947368 L18.3157895,3.78947368 C18.6644211,3.78947368 18.9473684,4.07242105 18.9473684,4.42105263 L18.9473684,19.5789474 C18.9473684,19.9275789 18.6644211,20.2105263 18.3157895,20.2105263 L4.42105263,20.2105263 C4.07242105,20.2105263 3.78947368,19.9275789 3.78947368,19.5789474 Z M1.26315789,17.0526316 L1.26315789,1.89473684 C1.26315789,1.54610526 1.54610526,1.26315789 1.89473684,1.26315789 L15.7894737,1.26315789 C16.1381053,1.26315789 16.4210526,1.54610526 16.4210526,1.89473684 L16.4210526,17.0526316 C16.4210526,17.4012632 16.1381053,17.6842105 15.7894737,17.6842105 L1.89473684,17.6842105 C1.54610526,17.6842105 1.26315789,17.4012632 1.26315789,17.0526316 Z M20.8421053,5.05263158 L20.2105263,5.05263158 L20.2105263,4.42105263 C20.2105263,3.37642105 19.3604211,2.52631579 18.3157895,2.52631579 L17.6842105,2.52631579 L17.6842105,1.89473684 C17.6842105,0.850105263 16.8341053,0 15.7894737,0 L1.89473684,0 C0.850105263,0 0,0.850105263 0,1.89473684 L0,17.0526316 C0,18.0972632 0.850105263,18.9473684 1.89473684,18.9473684 L2.52631579,18.9473684 L2.52631579,19.5789474 C2.52631579,20.6235789 3.37642105,21.4736842 4.42105263,21.4736842 L5.05263158,21.4736842 L5.05263158,22.1052632 C5.05263158,23.1498947 5.90273684,24 6.94736842,24 L20.8421053,24 C21.8867368,24 22.7368421,23.1498947 22.7368421,22.1052632 L22.7368421,6.94736842 C22.7368421,5.90273684 21.8867368,5.05263158 20.8421053,5.05263158 Z" id="Fill-8"></path>
                </g>
            </g>
        </g>
    </g>
</svg>
