<?xml version="1.0" encoding="UTF-8"?>
<svg width="22px" height="24px" viewBox="0 0 22 24" version="1.1" xmlns="http://www.w3.org/2000/svg" xmlns:xlink="http://www.w3.org/1999/xlink">
    <!-- Generator: Sketch 49.2 (51160) - http://www.bohemiancoding.com/sketch -->
    <title>Svgs/notifications/grey</title>
    <desc>Created with Sketch.</desc>
    <defs>
        <path d="M21.84375,17.15625 C22.2812498,17.625 22.5,18.1640625 22.5,18.7734375 C22.5,19.3828125 22.2890625,19.9062502 21.8671875,20.34375 C21.4453125,20.7812498 20.90625,21 20.25,21 L15,21 C15,21.84375 14.7109373,22.5546877 14.1328125,23.1328125 C13.5546877,23.7109373 12.84375,24 12,24 C11.15625,24 10.4453123,23.7109373 9.8671875,23.1328125 C9.28906274,22.5546877 9,21.84375 9,21 L3.75,21 C3.09375,21 2.5546875,20.7812498 2.1328125,20.34375 C1.7109375,19.9062502 1.5,19.3828125 1.5,18.7734375 C1.5,18.1640625 1.734375,17.625 2.203125,17.15625 C2.671875,16.6875 3.01562476,16.265625 3.234375,15.890625 C3.609375,15.2968748 3.90624976,14.5625002 4.125,13.6875 C4.37499976,12.6249998 4.5,11.3124998 4.5,9.75 C4.5,8.53125 4.77343726,7.39062524 5.3203125,6.328125 C5.86718774,5.26562476 6.61718774,4.3828125 7.5703125,3.6796875 C8.52343726,2.9765625 9.59375024,2.53125 10.78125,2.34375 C10.59375,2.09375024 10.5,1.81250024 10.5,1.5 C10.5,1.09374976 10.6484377,0.742187262 10.9453125,0.4453125 C11.2421873,0.148437738 11.5937498,0 12,0 C12.4062502,0 12.7578127,0.148437738 13.0546875,0.4453125 C13.3515623,0.742187262 13.5,1.09374976 13.5,1.5 C13.5,1.81250024 13.40625,2.09375024 13.21875,2.34375 C14.4062498,2.53125 15.4765627,2.9765625 16.4296875,3.6796875 C17.3828123,4.3828125 18.1328123,5.26562476 18.6796875,6.328125 C19.2265627,7.39062524 19.5,8.53125 19.5,9.75 C19.5,11.3124998 19.6250002,12.6249998 19.875,13.6875 C20.0937502,14.5625002 20.390625,15.2968748 20.765625,15.890625 C20.9843752,16.265625 21.3437498,16.6875 21.84375,17.15625 Z M12,22.125 C11.6874998,22.125 11.4218752,22.0156252 11.203125,21.796875 C10.9843748,21.5781248 10.875,21.3125002 10.875,21 L10.125,21 C10.125,21.5312498 10.3046873,21.9765623 10.6640625,22.3359375 C11.0234377,22.6953127 11.4687502,22.875 12,22.875 C12.09375,22.875 12.1796873,22.8359377 12.2578125,22.7578125 C12.3359377,22.6796873 12.375,22.59375 12.375,22.5 C12.375,22.40625 12.3359377,22.3203127 12.2578125,22.2421875 C12.1796873,22.1640623 12.09375,22.125 12,22.125 Z" id="path-1"></path>
    </defs>
    <g id="Styleguide" stroke="none" stroke-width="1" fill="none" fill-rule="evenodd">
        <g id="Styleguide---Base" transform="translate(-724.000000, -3881.000000)">
            <g id="BB/Base/Icons/notifications/grey" transform="translate(723.000000, 3881.000000)">
                <mask id="mask-2" fill="white">
                    <use xlink:href="#path-1"></use>
                </mask>
                <use id="Mask" fill="#737373" fill-rule="evenodd" xlink:href="#path-1"></use>
            </g>
        </g>
    </g>
</svg>
