<?xml version="1.0" encoding="UTF-8"?>
<svg width="24px" height="20px" viewBox="0 0 24 20" version="1.1" xmlns="http://www.w3.org/2000/svg" xmlns:xlink="http://www.w3.org/1999/xlink">
    <!-- Generator: Sketch 49.2 (51160) - http://www.bohemiancoding.com/sketch -->
    <title>Svgs/payments/grey</title>
    <desc>Created with Sketch.</desc>
    <defs>
        <path d="M21.6326726,19.0946411 L21.6326726,4.67285933 L2.3651722,4.67285933 L2.3651722,19.0946411 L21.6326726,19.0946411 Z M21.6326726,2.25 C22.3056925,2.25 22.8681363,2.48555341 23.3200211,2.95666731 C23.7719058,3.4277812 23.9978448,3.99983949 23.9978448,4.67285933 L23.9978448,19.0946411 C23.9978448,19.7676609 23.7719058,20.3397192 23.3200211,20.8108331 C22.8681363,21.281947 22.3056925,21.5175004 21.6326726,21.5175004 L2.3651722,21.5175004 C1.69215236,21.5175004 1.1297085,21.281947 0.677823742,20.8108331 C0.225938988,20.3397192 0,19.7676609 0,19.0946411 L0,4.67285933 C0,3.99983949 0.225938988,3.4277812 0.677823742,2.95666731 C1.1297085,2.48555341 1.69215236,2.25 2.3651722,2.25 L21.6326726,2.25 Z M10.8163363,17.912055 L10.8163363,16.6717817 L8.39347697,16.6717817 L8.39347697,14.3066095 L13.1815085,14.3066095 L13.1815085,13.0663363 L9.57606307,13.0663363 C9.24916772,13.0663363 8.97034939,12.9509632 8.73959973,12.7202135 C8.50885007,12.4894639 8.39347697,12.2106456 8.39347697,11.8837502 L8.39347697,8.27830477 C8.39347697,7.95140941 8.50885007,7.67259109 8.73959973,7.44184143 C8.97034939,7.21109176 9.24916772,7.09571866 9.57606307,7.09571866 L10.8163363,7.09571866 L10.8163363,5.85544543 L13.1815085,5.85544543 L13.1815085,7.09571866 L15.6043678,7.09571866 L15.6043678,9.46089087 L10.8163363,9.46089087 L10.8163363,10.7011641 L14.4217817,10.7011641 C14.7486771,10.7011641 15.0274954,10.8165372 15.2582451,11.0472869 C15.4889947,11.2780365 15.6043678,11.5568548 15.6043678,11.8837502 L15.6043678,15.4891956 C15.6043678,15.816091 15.4889947,16.0949093 15.2582451,16.325659 C15.0274954,16.5564086 14.7486771,16.6717817 14.4217817,16.6717817 L13.1815085,16.6717817 L13.1815085,17.912055 L10.8163363,17.912055 Z" id="path-1"></path>
    </defs>
    <g id="Styleguide" stroke="none" stroke-width="1" fill="none" fill-rule="evenodd">
        <g id="Styleguide---Base" transform="translate(-103.000000, -3927.000000)">
            <g id="BB/Base/Icons/payments/grey" transform="translate(103.000000, 3925.000000)">
                <mask id="mask-2" fill="white">
                    <use xlink:href="#path-1"></use>
                </mask>
                <use id="Mask" fill="#737373" fill-rule="evenodd" xlink:href="#path-1"></use>
            </g>
        </g>
    </g>
</svg>
