<?xml version="1.0" encoding="UTF-8"?>
<svg width="22px" height="21px" viewBox="0 0 22 21" version="1.1" xmlns="http://www.w3.org/2000/svg" xmlns:xlink="http://www.w3.org/1999/xlink">
    <!-- Generator: Sketch 49.2 (51160) - http://www.bohemiancoding.com/sketch -->
    <title>Svgs/portfolio/grey</title>
    <desc>Created with Sketch.</desc>
    <defs></defs>
    <g id="Styleguide" stroke="none" stroke-width="1" fill="none" fill-rule="evenodd">
        <g id="Styleguide---Base" transform="translate(-144.000000, -3926.000000)">
            <g id="BB/Base/Icons/portfolio/grey" transform="translate(143.000000, 3925.000000)">
                <path d="M20.517,14.217 L20.517,7.842 L17.3295,7.842 L17.3295,9.933 L15.1875,9.933 L15.1875,7.842 L8.8125,7.842 L8.8125,9.933 L6.6705,9.933 L6.6705,7.842 L3.483,7.842 L3.483,14.217 L20.517,14.217 Z M20.517,19.4955 L20.517,17.4045 L3.483,17.4045 L3.483,19.4955 L20.517,19.4955 Z M8.8125,3.558 L8.8125,5.7 L15.1875,5.7 L15.1875,3.558 L8.8125,3.558 Z M20.517,5.7 C21.112003,5.7 21.609248,5.90824792 22.00875,6.32475 C22.408252,6.74125208 22.608,7.24699702 22.608,7.842 L22.608,19.4955 C22.608,20.090503 22.408252,20.5962479 22.00875,21.01275 C21.609248,21.4292521 21.112003,21.6375 20.517,21.6375 L3.483,21.6375 C2.88799703,21.6375 2.390752,21.4292521 1.99125,21.01275 C1.591748,20.5962479 1.392,20.090503 1.392,19.4955 L1.392,7.842 C1.392,7.24699702 1.591748,6.74125208 1.99125,6.32475 C2.390752,5.90824792 2.88799703,5.7 3.483,5.7 L6.6705,5.7 L6.6705,3.558 C6.6705,2.96299703 6.87874792,2.465752 7.29525,2.06625 C7.71175208,1.666748 8.21749703,1.467 8.8125,1.467 L15.1875,1.467 C15.782503,1.467 16.2882479,1.666748 16.70475,2.06625 C17.1212521,2.465752 17.3295,2.96299703 17.3295,3.558 L17.3295,5.7 L20.517,5.7 Z" id="card_travel---material" fill="#737373" fill-rule="evenodd"></path>
                <text id="card_travel---material"></text>
            </g>
        </g>
    </g>
</svg>
