<?xml version="1.0" encoding="UTF-8"?>
<svg width="21px" height="24px" viewBox="0 0 21 24" version="1.1" xmlns="http://www.w3.org/2000/svg" xmlns:xlink="http://www.w3.org/1999/xlink">
    <!-- Generator: Sketch 49.2 (51160) - http://www.bohemiancoding.com/sketch -->
    <title>Svgs/template/grey</title>
    <desc>Created with Sketch.</desc>
    <defs></defs>
    <g id="Styleguide" stroke="none" stroke-width="1" fill="none" fill-rule="evenodd">
        <g id="Styleguide---Base" transform="translate(-237.000000, -3925.000000)" fill="#737373">
            <g id="BB/Base/Icons/template/grey" transform="translate(235.000000, 3925.000000)">
                <g id="Group" transform="translate(2.250000, 0.000000)">
                    <path d="M1.8984375,1.26315789 C1.55039063,1.26315789 1.265625,1.54610526 1.265625,1.89473684 L1.265625,22.1052632 C1.265625,22.4538947 1.55039063,22.7368421 1.8984375,22.7368421 L18.3515625,22.7368421 C18.6996094,22.7368421 18.984375,22.4538947 18.984375,22.1052632 L18.984375,1.89473684 C18.984375,1.54610526 18.6996094,1.26315789 18.3515625,1.26315789 L1.8984375,1.26315789 Z M18.3515625,24 L1.8984375,24 C0.851765625,24 0,23.1498947 0,22.1052632 L0,1.89473684 C0,0.850105263 0.851765625,0 1.8984375,0 L18.3515625,0 C19.3982344,0 20.25,0.850105263 20.25,1.89473684 L20.25,22.1052632 C20.25,23.1498947 19.3982344,24 18.3515625,24 Z" id="Fill-1"></path>
                    <path d="M13.2890625,5.05263158 L4.4296875,5.05263158 C4.08164062,5.05263158 3.796875,4.76968421 3.796875,4.42105263 C3.796875,4.07242105 4.08164062,3.78947368 4.4296875,3.78947368 L13.2890625,3.78947368 C13.6371094,3.78947368 13.921875,4.07242105 13.921875,4.42105263 C13.921875,4.76968421 13.6371094,5.05263158 13.2890625,5.05263158" id="Fill-3"></path>
                    <path d="M15.8203125,7.57894737 L4.4296875,7.57894737 C4.08164062,7.57894737 3.796875,7.296 3.796875,6.94736842 C3.796875,6.59873684 4.08164062,6.31578947 4.4296875,6.31578947 L15.8203125,6.31578947 C16.1683594,6.31578947 16.453125,6.59873684 16.453125,6.94736842 C16.453125,7.296 16.1683594,7.57894737 15.8203125,7.57894737" id="Fill-5"></path>
                    <path d="M15.8203125,10.1052632 L4.4296875,10.1052632 C4.08164062,10.1052632 3.796875,9.82231579 3.796875,9.47368421 C3.796875,9.12505263 4.08164062,8.84210526 4.4296875,8.84210526 L15.8203125,8.84210526 C16.1683594,8.84210526 16.453125,9.12505263 16.453125,9.47368421 C16.453125,9.82231579 16.1683594,10.1052632 15.8203125,10.1052632" id="Fill-7"></path>
                    <path d="M10.7578125,12.6315789 L4.4296875,12.6315789 C4.08164062,12.6315789 3.796875,12.3486316 3.796875,12 C3.796875,11.6513684 4.08164062,11.3684211 4.4296875,11.3684211 L10.7578125,11.3684211 C11.1058594,11.3684211 11.390625,11.6513684 11.390625,12 C11.390625,12.3486316 11.1058594,12.6315789 10.7578125,12.6315789" id="Fill-9"></path>
                    <path d="M15.8203125,17.6842105 L4.4296875,17.6842105 C4.08164062,17.6842105 3.796875,17.4012632 3.796875,17.0526316 C3.796875,16.704 4.08164062,16.4210526 4.4296875,16.4210526 L15.8203125,16.4210526 C16.1683594,16.4210526 16.453125,16.704 16.453125,17.0526316 C16.453125,17.4012632 16.1683594,17.6842105 15.8203125,17.6842105" id="Fill-11"></path>
                    <path d="M13.2890625,20.2105263 L4.4296875,20.2105263 C4.08164062,20.2105263 3.796875,19.9275789 3.796875,19.5789474 C3.796875,19.2303158 4.08164062,18.9473684 4.4296875,18.9473684 L13.2890625,18.9473684 C13.6371094,18.9473684 13.921875,19.2303158 13.921875,19.5789474 C13.921875,19.9275789 13.6371094,20.2105263 13.2890625,20.2105263" id="Fill-13"></path>
                </g>
            </g>
        </g>
    </g>
</svg>
